<?xml version="1.0" encoding="UTF-8"?>
<svg id="Layer_2" data-name="Layer 2" xmlns="http://www.w3.org/2000/svg" viewBox="0 0 500.03 402.58">
  <defs>
    <style>
      .cls-1 {
        fill: #8b5cf6;
      }

      .cls-2 {
        fill: #6146b7;
      }
    </style>
  </defs>
  <g id="Layer_1-2" data-name="Layer 1">
    <g>
      <path class="cls-2" d="M201.93,127.78c.31-26.4,20.53-46.38,46.97-46.47,22.81-.08,42.26,15.65,46.18,38.12,5.35,30.62-18.64,56.57-48.57,55.74-25.26-.7-44.89-21.56-44.59-47.39Z"/>
      <path class="cls-1" d="M500.03,173.45v211c0,10.01-8.12,18.13-18.13,18.13H239.05c-9.4,0-18.67-2.19-27.08-6.39l-.5-.25c-29.46-15.29-32.79-44.56-6.46-64.77,14.79-11.38,32.11-19.51,48.39-29.01,10.65-6.22,22.11-11.36,32.03-18.62,25.64-18.76,28.18-33.17,6.98-58.61-1.01-1.22,.19-3,1.69-2.5,14.65,4.87,26.57,8.64,38.26,13.01l.24,.09c11.37,4.27,23.51-4.14,23.51-16.29v-45.79h-.05c-.44-16.85-3.2-33.1-8.02-48.49v-.03c-15.08-48.28-50.13-87.71-95.5-108.6h-.03c-1.67-.08-3.28-.08-4.9-.08-40.42,18.6-72.69,51.85-89.93,93.03-4.71,11.22-7.01,23.36-7.06,35.55,0,.03,0,.09,0,.16,.04,18.75,15.24,33.14,19.35,37.03,22.04,20.87,40.67,13.53,75.45,38.36,9.92,7.08,16.64,13.56,16.33,21.07-.36,8.7-9.99,14.94-16.36,18.73-47.27,28.13-110.81,38.03-146.44,56.46-1.51,.78-3,1.59-4.45,2.4-19.61,10.89-34.74,22.87-43.83,30.05-18.07,14.27-32.5,31.8-43.6,45.13-2.4,2.86-7.08,1.17-7.08-2.58V173.45H.05c.18-7.34,.81-14.58,1.88-21.69,2.58-17.37,7.66-33.91,14.87-49.27v-.03c5.29-11.28,11.75-21.9,19.19-31.75l.03-.03c14.66-19.38,33.18-35.65,54.43-47.66C116.31,8.36,146.21,0,178.06,0c25.6,0,49.95,5.42,71.96,15.16C272.02,5.42,296.37,0,321.98,0c84.02,0,154.44,58.18,173.16,136.44v.03c2.79,11.56,4.43,23.54,4.79,35.86,.03,.36,.05,.76,.05,1.12h.05Z"/>
      <path class="cls-2" d="M500.03,173.45v211c0,10.03-8.1,18.13-18.13,18.13h-133.11c1.07-13.59,5.39-24.95,13.05-33.86,5.68-6.64,13.23-11.9,22.66-15.7,9.25-3.72,13.33-8.46,14.06-18.78,1.64-23.36,14.09-37.53,37.06-42.29,10.21-2.11,12.19-7.32,11.98-16.23-.68-30.31,5.63-59.01,25.65-82.48,7.19-8.41,16.85-15.18,26.67-20.91,.03,.36,.05,.76,.05,1.12h.05Z"/>
      <path class="cls-2" d="M110.95,147.8c-15.7,14.35-19.04,30.89-20.63,49.59-.83,6.8-1.69,13.59-2.55,20.39-5.36,33.05-2.55,65.66,5.5,97.92,.34,1.33,.76,2.42,1.25,3.33-19.61,10.89-34.74,22.87-43.83,30.05-18.07,14.27-32.5,31.8-43.6,45.13-2.4,2.86-7.08,1.17-7.08-2.58V204.83c21.69,7.76,34.4,24.77,43,45.73,2.76,6.77,4.56,14.04,5.96,21.25,5.23,26.75,5.1,26.77,33.75,29.32-1.02-22.87-1.64-45.73-3.41-68.49-.29-3.67-5.1-7.6-8.67-10.31-19.98-15.26-33.02-34.61-33.96-60.19-.23-6.69,3.98-13.54,6.17-20.31,6.22,3.28,14.92,5,18.2,10.16,8.88,13.96,15.47,29.38,22.97,44.2,1.56-15.37,8.75-31.15,4.64-49.27-7.21-31.96,.49-60.26,24.69-83.08,3.49-3.28,10.63-7.6,12.87-6.22,3.96,2.45,6.95,8.62,7.81,13.67,5.03,29.22-1.33,56.62-23.07,76.52Z"/>
    </g>
  </g>
</svg>